PathFileType	4	(X/Y/Z)	Patient4_TMGait_0pt4_02_right_44.trc.trc
DataRate	CameraRate	NumFrames	NumMarkers	Units	OrigDataRate	OrigDataStartFrame	OrigNumFrames
74.468085106383	74.468085106383	4	33	mm	74.468085106383	18	       141
Frame#	Time	Sacral			L.Shoulder			Chest			R.Shoulder			Neck			R.ASIS			L.ASIS			R.Thigh.Superior			R.Thigh.Lateral			R.Thigh.Inferior			R.Patella			L.Thigh.Superior			L.Thigh.Lateral			L.Thigh.Inferior			L.Patella			L.Shank.Superior			L.Shank.Lateral			L.Shank.Inferior			R.Shank.Superior			R.Shank.Lateral			R.Shank.Inferior			R.Heel			R.Midfoot.Superior			R.Midfoot.Lateral			R.Toe			L.Heel			L.Midfoot.Lateral			L.Midfoot.Superior			L.Toe			L.Elbow			L.Wrist			R.Elbow			R.Wrist			
		X1	Y1	Z1	X2	Y2	Z2	X3	Y3	Z3	X4	Y4	Z4	X5	Y5	Z5	X6	Y6	Z6	X7	Y7	Z7	X8	Y8	Z8	X9	Y9	Z9	X10	Y10	Z10	X11	Y11	Z11	X12	Y12	Z12	X13	Y13	Z13	X14	Y14	Z14	X15	Y15	Z15	X16	Y16	Z16	X17	Y17	Z17	X18	Y18	Z18	X19	Y19	Z19	X20	Y20	Z20	X21	Y21	Z21	X22	Y22	Z22	X23	Y23	Z23	X24	Y24	Z24	X25	Y25	Z25	X26	Y26	Z26	X27	Y27	Z27	X28	Y28	Z28	X29	Y29	Z29	X30	Y30	Z30	X31	Y31	Z31	X32	Y32	Z32	X33	Y33	Z33	

18	58.208285714286	823.526332068684	1008.893598243613	458.570145853283	1029.327908992833	1433.471160322927	282.490192507920	1110.610734819527	1365.442058497370	455.438521859188	1009.178422219245	1441.697155766030	618.308524163866	993.587299437340	1498.098481182649	437.896928231041	1043.787893829539	949.262412703946	595.216895820000	1048.416333380829	962.346425028602	318.497276957822	1109.638760890855	762.872475512103	572.176653986414	1057.690559123155	648.409240663005	648.940686935624	1141.807662709325	601.709995697303	568.502586404504	1170.533907504709	521.064733493229	586.506279523726	1062.061211855313	737.510727283588	350.335073030978	954.004797474713	636.229087218805	283.359144728052	1018.541517566779	547.347312313390	349.214196442791	1007.023618553673	481.882947929029	358.472390617701	977.962641885215	413.867763621150	350.068081747933	882.767583698095	304.246725307732	298.860265100879	924.781762684684	190.631318456258	372.361294969127	1154.178871555903	436.027703002965	601.095298520908	1103.008530644643	325.764205055875	672.072307074948	1169.365367582780	236.866201075453	620.636061156303	1075.439838676482	48.509652762543	603.367869429853	1239.578583935096	124.232351199491	635.402637003585	1161.908034891911	50.090459899815	674.793015169135	1365.050278837683	88.097698784317	659.457699094950	791.563464327896	39.042241322988	418.570187837168	863.283977140864	35.426773225320	335.977351594278	947.547174997716	95.320730068306	361.435723447092	1075.594830638438	41.408860573679	329.816187526597	1091.040640640315	1104.159338643343	134.025943493018	1345.021428692338	1059.472920008563	156.427927009909	871.167397808159	1124.338944601615	727.431600538342	861.549415143167	862.970927859346	738.649959173645	
19	58.221714285714	824.774146981884	1008.126938506646	460.283482759573	1030.053662159322	1432.651960603873	284.321850475246	1111.327766495394	1364.800125528465	457.347148877734	1009.719586069241	1441.056113060292	620.120370388379	994.104020630498	1497.362322479045	439.682124373634	1044.860677088420	948.150159548054	597.078966302352	1049.619515502779	961.684242458865	320.323217316360	1108.514351931671	759.927422504430	574.377675106781	1054.492970048882	645.719723335973	650.016434397404	1138.381141554610	598.628843928820	569.587162834401	1166.025417545652	518.936414826980	586.649608248591	1061.401314731440	736.459574812985	351.577620584630	952.066153983632	636.180550589458	284.348118325449	1015.731833208368	546.600546949944	349.896646597229	1003.839679843535	481.192616566075	358.869801994377	974.231474251451	413.531395311726	350.463369322286	878.189182755534	304.553983207685	299.168139211803	919.894098516860	190.505263207960	372.336996073028	1150.926781704346	433.870241254809	601.101549012766	1100.948461665324	322.518911459436	671.213116957567	1168.820741716853	234.819256099103	619.528591652556	1077.430829715583	46.087897631714	600.689244369010	1240.832954865967	122.091187354172	633.655562158454	1163.385664746469	47.807947316121	672.523985782516	1366.360015803764	86.522385498448	658.232514252312	786.142311899410	39.092460267586	418.507592574986	857.850371583525	35.410308805394	335.941934027734	942.122299144996	95.279842715486	361.376781475872	1070.134748156442	41.322633824839	329.804523617520	1091.729410249096	1103.178711598913	136.255844063312	1345.679269527977	1058.612804732045	158.574723393489	871.436280665749	1123.768216285926	728.659210078732	862.440268896590	862.242377470405	738.924019040017	
20	58.235142857143	826.157266270140	1007.187755568231	462.301347178501	1030.497720359017	1431.797809222594	286.349422455054	1111.961595877933	1364.193181981611	459.388882022280	1010.213917424264	1440.319043360857	622.157514738672	994.455265225192	1496.553821912519	441.694481864490	1046.235564089727	946.964753263801	599.026716505410	1050.909883145458	960.994847890100	322.284200556618	1108.215825003629	757.272716626679	576.472930594270	1052.208677244591	643.126278818363	650.847174394930	1135.963900730366	595.902782041783	570.491721832721	1162.370628876667	516.744742812144	586.670160542881	1060.916376315433	735.344366678038	352.874745221844	950.375911555400	636.083557519284	285.489834949544	1013.229260774600	545.805380347296	350.699190625142	1001.012761671281	480.399060787639	359.395373062953	970.764685808018	413.107792149587	350.975280092382	873.773010570521	304.877215295925	299.579403761272	915.086904399150	190.330628106531	372.350743260942	1147.840121568206	431.398898425951	600.906109134663	1097.959684532575	319.504142680263	670.022773464186	1166.491920897221	232.435149663692	618.196339913682	1075.870572466026	44.534444621213	597.765012610613	1239.081552690617	119.243525903134	631.769506733714	1161.199697575254	45.691275362454	670.128574831848	1364.281304989946	83.134234314826	657.046283688655	780.707728333799	39.125612231596	418.434198497489	852.414621434819	35.386506164772	335.907021068403	936.686544901555	95.244313271620	361.331411430757	1064.675552881892	41.236944573376	329.789087654466	1091.963955252087	1102.066798509010	138.687433499811	1345.806582418529	1056.789442291735	160.888322336816	872.498830812337	1122.691522218587	730.241678366586	864.858186783953	860.993266264342	739.480186458553	
21	58.248571428571	827.648350475012	1006.109509540561	464.599717006089	1030.688093570679	1430.925382290103	288.575014509334	1112.529053407194	1363.629317304233	461.568035831945	1010.678771899844	1439.503601732615	624.422055821162	994.666127071019	1495.692497318847	443.933644928940	1047.893304711471	945.732294450993	601.057388649532	1052.273647000975	960.289138341969	324.374632451478	1108.733147634690	754.920642019635	578.447115729275	1050.808257900225	640.671141750354	651.450392307022	1134.536891259611	593.557018492366	571.239741027390	1159.566824056982	514.529789476850	586.555994922402	1060.597309409397	734.169457542185	354.204595265622	948.963056345172	635.936887364038	286.787714800825	1011.081490306734	544.967262588756	351.624353124852	998.596716340904	479.497342505006	360.055385885892	967.611030467109	412.589108910105	351.612608165071	869.559861755943	305.221239328558	300.104753674036	910.372668663285	190.106044240733	372.410869452735	1145.032014447025	428.684146387937	600.534433126178	1094.353009625238	316.710040329970	668.642704218189	1162.759413520483	229.736518322460	616.715062913734	1071.344676163779	43.606292079349	594.832437922843	1234.837833823789	115.850717141961	629.833170971320	1156.021804640004	43.714615154181	667.786155650200	1359.466490613061	78.366150634575	655.907756906496	775.259702489154	39.154996141370	418.345024407998	846.982021465241	35.358364251229	335.872463844299	931.249462718559	95.219301496819	361.297616126214	1059.225381747149	41.147175732886	329.767676590287	1091.713242437162	1100.828286657136	141.313359238692	1345.368410373647	1054.028418938213	163.337040251607	874.320965486829	1121.156486374450	732.189761508620	868.779446857112	859.287016323708	740.362274919631	
